{
  "accessors": [
    {
      "bufferView": 2,
      "componentType": 5126,
      "count": 8,
      "max": [
        -0.5870389938354492,
        0.3396625518798828,
        14.801965713500977
      ],
      "min": [
        -0.6666229963302612,
        0.3395182192325592,
        14.725447654724121
      ],
      "type": "VEC3"
    },
    {
      "bufferView": 2,
      "byteOffset": 96,
      "componentType": 5126,
      "count": 8,
      "max": [
        -0.5239481925964355,
        -0.468994140625,
        0.7110013365745544
      ],
      "min": [
        -0.687268853187561,
        -0.47568994760513306,
        0.5489814281463623
      ],
      "type": "VEC3"
    },
    {
      "bufferView": 1,
      "componentType": 5126,
      "count": 8,
      "max": [
        0.4757431745529175,
        0.6697307229042053
      ],
      "min": [
        0.4661172926425934,
        0.6595376133918762
      ],
      "type": "VEC2"
    },
    {
      "bufferView": 0,
      "componentType": 5125,
      "count": 12,
      "type": "SCALAR"
    },
    {
      "bufferView": 2,
      "byteOffset": 192,
      "componentType": 5126,
      "count": 1212,
      "max": [
        15.567680358886719,
        1.2314715385437012,
        15.391942977905273
      ],
      "min": [
        -1.288744330406189,
        1.3275155197334243e-07,
        -1.4644815921783447
      ],
      "type": "VEC3"
    },
    {
      "bufferView": 2,
      "byteOffset": 14736,
      "componentType": 5126,
      "count": 1212,
      "max": [
        1.0,
        1.0,
        1.0
      ],
      "min": [
        -1.0,
        -0.9999998807907104,
        -1.0
      ],
      "type": "VEC3"
    },
    {
      "bufferView": 1,
      "byteOffset": 64,
      "componentType": 5126,
      "count": 1212,
      "max": [
        0.9931850433349609,
        0.9989989995956421
      ],
      "min": [
        0.0010010009864345193,
        0.0010010009864345193
      ],
      "type": "VEC2"
    },
    {
      "bufferView": 0,
      "byteOffset": 48,
      "componentType": 5125,
      "count": 1872,
      "type": "SCALAR"
    },
    {
      "bufferView": 2,
      "byteOffset": 29280,
      "componentType": 5126,
      "count": 11740,
      "max": [
        1.0,
        8.731149137020111e-11,
        1.0
      ],
      "min": [
        -1.0,
        -0.02265806496143341,
        -1.0
      ],
      "type": "VEC3"
    },
    {
      "bufferView": 2,
      "byteOffset": 170160,
      "componentType": 5126,
      "count": 11740,
      "max": [
        1.0,
        1.0,
        1.0
      ],
      "min": [
        -1.0,
        -1.0,
        -1.0
      ],
      "type": "VEC3"
    },
    {
      "bufferView": 1,
      "byteOffset": 9760,
      "componentType": 5126,
      "count": 11740,
      "max": [
        1.0,
        1.0
      ],
      "min": [
        0.0,
        0.0
      ],
      "type": "VEC2"
    },
    {
      "bufferView": 0,
      "byteOffset": 7536,
      "componentType": 5125,
      "count": 19452,
      "type": "SCALAR"
    },
    {
      "bufferView": 2,
      "byteOffset": 311040,
      "componentType": 5126,
      "count": 65532,
      "max": [
        2.3949999809265137,
        4.4001851081848145,
        2.394151210784912
      ],
      "min": [
        -105.26499938964844,
        0.0,
        -102.94849395751953
      ],
      "type": "VEC3"
    },
    {
      "bufferView": 2,
      "byteOffset": 1097424,
      "componentType": 5126,
      "count": 65532,
      "max": [
        1.0,
        1.0,
        0.9999563694000244
      ],
      "min": [
        -1.0,
        -1.0,
        -0.999964714050293
      ],
      "type": "VEC3"
    },
    {
      "bufferView": 0,
      "byteOffset": 85344,
      "componentType": 5125,
      "count": 100164,
      "type": "SCALAR"
    },
    {
      "bufferView": 2,
      "byteOffset": 1883808,
      "componentType": 5126,
      "count": 21112,
      "max": [
        2.3949999809265137,
        4.4001851081848145,
        1.4049999713897705
      ],
      "min": [
        -104.27450561523438,
        0.0,
        -102.94849395751953
      ],
      "type": "VEC3"
    },
    {
      "bufferView": 2,
      "byteOffset": 2137152,
      "componentType": 5126,
      "count": 21112,
      "max": [
        1.0,
        1.0,
        0.9999563097953796
      ],
      "min": [
        -1.0,
        -0.767555296421051,
        -0.999964714050293
      ],
      "type": "VEC3"
    },
    {
      "bufferView": 0,
      "byteOffset": 486000,
      "componentType": 5125,
      "count": 32172,
      "type": "SCALAR"
    },
    {
      "bufferView": 2,
      "byteOffset": 2390496,
      "componentType": 5126,
      "count": 4,
      "max": [
        0.631621241569519,
        -0.23191170394420624,
        0.21316227316856384
      ],
      "min": [
        -0.631621241569519,
        -0.23191170394420624,
        -0.2641148269176483
      ],
      "type": "VEC3"
    },
    {
      "bufferView": 2,
      "byteOffset": 2390544,
      "componentType": 5126,
      "count": 4,
      "max": [
        0.0,
        1.0,
        -0.0
      ],
      "min": [
        0.0,
        1.0,
        -0.0
      ],
      "type": "VEC3"
    },
    {
      "bufferView": 1,
      "byteOffset": 103680,
      "componentType": 5126,
      "count": 4,
      "max": [
        1.0,
        1.0
      ],
      "min": [
        0.0,
        0.0
      ],
      "type": "VEC2"
    },
    {
      "bufferView": 0,
      "byteOffset": 614688,
      "componentType": 5125,
      "count": 6,
      "type": "SCALAR"
    },
    {
      "bufferView": 2,
      "byteOffset": 2390592,
      "componentType": 5126,
      "count": 542,
      "max": [
        14.943665504455566,
        0.6802802681922913,
        14.829963684082031
      ],
      "min": [
        -0.6957424879074097,
        0.21864956617355347,
        -0.9025025963783264
      ],
      "type": "VEC3"
    },
    {
      "bufferView": 2,
      "byteOffset": 2397096,
      "componentType": 5126,
      "count": 542,
      "max": [
        0.6864785552024841,
        -0.689912736415863,
        0.7215132117271423
      ],
      "min": [
        -0.6844518780708313,
        -0.9969851970672607,
        -0.7238926291465759
      ],
      "type": "VEC3"
    },
    {
      "bufferView": 1,
      "byteOffset": 103712,
      "componentType": 5126,
      "count": 542,
      "max": [
        0.9989989995956421,
        0.9929014444351196
      ],
      "min": [
        0.0010010009864345193,
        0.0010010009864345193
      ],
      "type": "VEC2"
    },
    {
      "bufferView": 0,
      "byteOffset": 614712,
      "componentType": 5125,
      "count": 924,
      "type": "SCALAR"
    },
    {
      "bufferView": 2,
      "byteOffset": 2403600,
      "componentType": 5126,
      "count": 48,
      "max": [
        14.943665504455566,
        0.4264819025993347,
        14.829963684082031
      ],
      "min": [
        -0.6957424879074097,
        0.3394795358181,
        -0.9025025963783264
      ],
      "type": "VEC3"
    },
    {
      "bufferView": 2,
      "byteOffset": 2404176,
      "componentType": 5126,
      "count": 48,
      "max": [
        0.6806167364120483,
        0.0003633385640569031,
        0.7484631538391113
      ],
      "min": [
        -0.6930848360061646,
        0.00034512398997321725,
        -0.7326396107673645
      ],
      "type": "VEC3"
    },
    {
      "bufferView": 1,
      "byteOffset": 108048,
      "componentType": 5126,
      "count": 48,
      "max": [
        0.41760364174842834,
        0.7307063341140747
      ],
      "min": [
        0.3789079785346985,
        0.7083180546760559
      ],
      "type": "VEC2"
    },
    {
      "bufferView": 0,
      "byteOffset": 618408,
      "componentType": 5125,
      "count": 120,
      "type": "SCALAR"
    },
    {
      "bufferView": 2,
      "byteOffset": 2404752,
      "componentType": 5126,
      "count": 4,
      "max": [
        0.5,
        0.0,
        0.5
      ],
      "min": [
        -0.5,
        0.0,
        -0.5
      ],
      "type": "VEC3"
    },
    {
      "bufferView": 2,
      "byteOffset": 2404800,
      "componentType": 5126,
      "count": 4,
      "max": [
        0.0,
        1.0,
        -0.0
      ],
      "min": [
        0.0,
        1.0,
        -0.0
      ],
      "type": "VEC3"
    },
    {
      "bufferView": 1,
      "byteOffset": 108432,
      "componentType": 5126,
      "count": 4,
      "max": [
        1.0,
        1.0
      ],
      "min": [
        0.0,
        0.0
      ],
      "type": "VEC2"
    },
    {
      "bufferView": 0,
      "byteOffset": 618888,
      "componentType": 5125,
      "count": 6,
      "type": "SCALAR"
    }
  ],
  "asset": {
    "extras": {
      "author": "ShreyasGarje (https://sketchfab.com/ShreyasGarje)",
      "license": "CC-BY-4.0 (http://creativecommons.org/licenses/by/4.0/)",
      "source": "https://sketchfab.com/3d-models/photo-frame-768acdc1714940a9b16d0c24975b43ad",
      "title": "Photo Frame"
    },
    "generator": "Sketchfab-12.68.0",
    "version": "2.0"
  },
  "bufferViews": [
    {
      "buffer": 0,
      "byteLength": 618912,
      "name": "floatBufferViews",
      "target": 34963
    },
    {
      "buffer": 0,
      "byteLength": 108464,
      "byteOffset": 618912,
      "byteStride": 8,
      "name": "floatBufferViews",
      "target": 34962
    },
    {
      "buffer": 0,
      "byteLength": 2404848,
      "byteOffset": 727376,
      "byteStride": 12,
      "name": "floatBufferViews",
      "target": 34962
    }
  ],
  "buffers": [
    {
      "byteLength": 3132224,
      "uri": "scene.bin"
    }
  ],
  "images": [
    {
      "uri": "textures/Wood_Frame__Dark_baseColor.png"
    },
    {
      "uri": "textures/Wood_Frame_baseColor.png"
    },
    {
      "uri": "textures/TexturesCom_DecalsLeaking0350_2_masked_S_baseColor.png"
    },
    {
      "uri": "textures/Screenshot_506_baseColor.png"
    }
  ],
  "materials": [
    {
      "doubleSided": true,
      "name": "Wood_Frame__Dark",
      "pbrMetallicRoughness": {
        "baseColorTexture": {
          "index": 0
        },
        "metallicFactor": 0.5,
        "roughnessFactor": 0.2
      }
    },
    {
      "doubleSided": true,
      "name": "Wood_Frame",
      "pbrMetallicRoughness": {
        "baseColorTexture": {
          "index": 1
        },
        "metallicFactor": 0.42744736533621486,
        "roughnessFactor": 0.377993008218268
      }
    },
    {
      "doubleSided": true,
      "name": "Material.005",
      "pbrMetallicRoughness": {
        "baseColorFactor": [
          0.05354239122835615,
          0.05168356196638789,
          0.05168356196638789,
          1.0
        ],
        "metallicFactor": 0.17208785562647347,
        "roughnessFactor": 0.9320863964292752
      }
    },
    {
      "doubleSided": true,
      "name": "Material",
      "pbrMetallicRoughness": {
        "baseColorFactor": [
          0.8,
          0.8,
          0.8,
          1.0
        ],
        "roughnessFactor": 0.0
      }
    },
    {
      "alphaMode": "BLEND",
      "doubleSided": true,
      "name": "TexturesCom_DecalsLeaking0350_2_masked_S",
      "pbrMetallicRoughness": {
        "baseColorFactor": [
          1.0,
          1.0,
          1.0,
          0.15992787897362862
        ],
        "baseColorTexture": {
          "index": 2
        },
        "metallicFactor": 0.0
      }
    },
    {
      "doubleSided": true,
      "name": "Screenshot_506",
      "pbrMetallicRoughness": {
        "baseColorTexture": {
          "index": 3
        },
        "metallicFactor": 0.0,
        "roughnessFactor": 0.5
      }
    }
  ],
  "meshes": [
    {
      "name": "Object_0",
      "primitives": [
        {
          "attributes": {
            "NORMAL": 1,
            "POSITION": 0,
            "TEXCOORD_0": 2
          },
          "indices": 3,
          "material": 0,
          "mode": 4
        }
      ]
    },
    {
      "name": "Object_1",
      "primitives": [
        {
          "attributes": {
            "NORMAL": 5,
            "POSITION": 4,
            "TEXCOORD_0": 6
          },
          "indices": 7,
          "material": 1,
          "mode": 4
        }
      ]
    },
    {
      "name": "Object_2",
      "primitives": [
        {
          "attributes": {
            "NORMAL": 9,
            "POSITION": 8,
            "TEXCOORD_0": 10
          },
          "indices": 11,
          "material": 2,
          "mode": 4
        }
      ]
    },
    {
      "name": "Object_3",
      "primitives": [
        {
          "attributes": {
            "NORMAL": 13,
            "POSITION": 12
          },
          "indices": 14,
          "material": 3,
          "mode": 4
        }
      ]
    },
    {
      "name": "Object_4",
      "primitives": [
        {
          "attributes": {
            "NORMAL": 16,
            "POSITION": 15
          },
          "indices": 17,
          "material": 3,
          "mode": 4
        }
      ]
    },
    {
      "name": "Object_5",
      "primitives": [
        {
          "attributes": {
            "NORMAL": 19,
            "POSITION": 18,
            "TEXCOORD_0": 20
          },
          "indices": 21,
          "material": 4,
          "mode": 4
        }
      ]
    },
    {
      "name": "Object_6",
      "primitives": [
        {
          "attributes": {
            "NORMAL": 23,
            "POSITION": 22,
            "TEXCOORD_0": 24
          },
          "indices": 25,
          "material": 0,
          "mode": 4
        }
      ]
    },
    {
      "name": "Object_7",
      "primitives": [
        {
          "attributes": {
            "NORMAL": 27,
            "POSITION": 26,
            "TEXCOORD_0": 28
          },
          "indices": 29,
          "material": 1,
          "mode": 4
        }
      ]
    },
    {
      "name": "Object_8",
      "primitives": [
        {
          "attributes": {
            "NORMAL": 31,
            "POSITION": 30,
            "TEXCOORD_0": 32
          },
          "indices": 33,
          "material": 5,
          "mode": 4
        }
      ]
    }
  ],
  "nodes": [
    {
      "children": [
        1
      ],
      "matrix": [
        1.0,
        0.0,
        0.0,
        0.0,
        0.0,
        2.220446049250313e-16,
        -1.0,
        0.0,
        0.0,
        1.0,
        2.220446049250313e-16,
        0.0,
        0.0004012873687315732,
        1.6619490164545139e-16,
        0.0015247028786689043,
        1.0
      ],
      "name": "Sketchfab_model"
    },
    {
      "children": [
        2
      ],
      "name": "root"
    },
    {
      "children": [
        3
      ],
      "matrix": [
        1.0,
        0.0,
        0.0,
        0.0,
        0.0,
        2.220446049250313e-16,
        1.0,
        0.0,
        0.0,
        -1.0,
        2.220446049250313e-16,
        0.0,
        0.0,
        0.0,
        0.0,
        1.0
      ],
      "name": "GLTF_SceneRootNode"
    },
    {
      "children": [
        4,
        5,
        6,
        8,
        11,
        13,
        16
      ],
      "matrix": [
        0.11864912509918213,
        0.0,
        0.0,
        0.0,
        0.0,
        0.0,
        0.11864912509918213,
        0.0,
        0.0,
        -0.11864912509918213,
        0.0,
        0.0,
        -0.8470916152000427,
        0.8262405395507813,
        0.0,
        1.0
      ],
      "name": "Frame_5"
    },
    {
      "mesh": 0,
      "name": "Object_4"
    },
    {
      "mesh": 1,
      "name": "Object_5"
    },
    {
      "children": [
        7
      ],
      "matrix": [
        8.365073204040527,
        0.0,
        0.0,
        0.0,
        0.0,
        8.365073204040527,
        0.0,
        0.0,
        0.0,
        0.0,
        8.365073204040527,
        0.0,
        7.139468669891357,
        0.0,
        6.963730812072754,
        1.0
      ],
      "name": "Back Base_0"
    },
    {
      "mesh": 2,
      "name": "Object_7"
    },
    {
      "children": [
        9,
        10
      ],
      "matrix": [
        0.1339992731809616,
        0.0,
        0.0,
        0.0,
        0.0,
        -0.13399927318095875,
        2.768854858077476e-08,
        0.0,
        0.0,
        -2.768854858077476e-08,
        -0.13399927318095875,
        0.0,
        14.04863166809082,
        0.2718631625175476,
        0.2059755176305771,
        1.0
      ],
      "name": "Bolt.001_1"
    },
    {
      "mesh": 3,
      "name": "Object_9"
    },
    {
      "mesh": 4,
      "name": "Object_10"
    },
    {
      "children": [
        12
      ],
      "matrix": [
        10.110466003417969,
        0.0,
        0.0,
        0.0,
        0.0,
        8.42821216583252,
        0.0,
        0.0,
        0.0,
        0.0,
        8.42821216583252,
        0.0,
        7.139468669891357,
        2.0936832427978516,
        2.803762435913086,
        1.0
      ],
      "name": "decals_2"
    },
    {
      "mesh": 5,
      "name": "Object_12"
    },
    {
      "children": [
        14,
        15
      ],
      "name": "Frame.001_3"
    },
    {
      "mesh": 6,
      "name": "Object_14"
    },
    {
      "mesh": 7,
      "name": "Object_15"
    },
    {
      "children": [
        17
      ],
      "matrix": [
        12.771968841552734,
        0.0,
        0.0,
        0.0,
        0.0,
        12.771968841552734,
        0.0,
        0.0,
        0.0,
        0.0,
        12.771968841552734,
        0.0,
        7.139468669891357,
        0.13908164203166962,
        6.963730812072754,
        1.0
      ],
      "name": "Picture_4"
    },
    {
      "mesh": 8,
      "name": "Object_17"
    }
  ],
  "samplers": [
    {
      "magFilter": 9729,
      "minFilter": 9987,
      "wrapS": 10497,
      "wrapT": 10497
    }
  ],
  "scene": 0,
  "scenes": [
    {
      "name": "Sketchfab_Scene",
      "nodes": [
        0
      ]
    }
  ],
  "textures": [
    {
      "sampler": 0,
      "source": 0
    },
    {
      "sampler": 0,
      "source": 1
    },
    {
      "sampler": 0,
      "source": 2
    },
    {
      "sampler": 0,
      "source": 3
    }
  ]
}
