{
  "accessors": [
    {
      "bufferView": 2,
      "componentType": 5126,
      "count": 1032,
      "max": [
        6.090580463409424,
        98.90985870361328,
        -1.5500926971435547
      ],
      "min": [
        -6.090580463409424,
        31.600130081176758,
        -77.58575439453125
      ],
      "type": "VEC3"
    },
    {
      "bufferView": 2,
      "byteOffset": 12384,
      "componentType": 5126,
      "count": 1032,
      "max": [
        1.0,
        1.0,
        1.0
      ],
      "min": [
        -1.0,
        -1.0,
        -1.0
      ],
      "type": "VEC3"
    },
    {
      "bufferView": 1,
      "componentType": 5126,
      "count": 1032,
      "max": [
        0.8256237506866455,
        0.9908277988433838
      ],
      "min": [
        0.012813568115234375,
        0.005833983421325684
      ],
      "type": "VEC2"
    },
    {
      "bufferView": 0,
      "componentType": 5125,
      "count": 1548,
      "type": "SCALAR"
    },
    {
      "bufferView": 2,
      "byteOffset": 24768,
      "componentType": 5126,
      "count": 638,
      "max": [
        5.850364685058594,
        71.2618179321289,
        -2.3421730995178223
      ],
      "min": [
        -5.850366592407227,
        55.71438217163086,
        -25.875516891479492
      ],
      "type": "VEC3"
    },
    {
      "bufferView": 2,
      "byteOffset": 32424,
      "componentType": 5126,
      "count": 638,
      "max": [
        1.0,
        1.0,
        1.0
      ],
      "min": [
        -1.0,
        -1.0,
        -1.0
      ],
      "type": "VEC3"
    },
    {
      "bufferView": 1,
      "byteOffset": 8256,
      "componentType": 5126,
      "count": 638,
      "max": [
        3.6679677963256836,
        1.0146708488464355
      ],
      "min": [
        2.9143002033233643,
        0.014670845121145248
      ],
      "type": "VEC2"
    },
    {
      "bufferView": 0,
      "byteOffset": 6192,
      "componentType": 5125,
      "count": 1380,
      "type": "SCALAR"
    },
    {
      "bufferView": 2,
      "byteOffset": 40080,
      "componentType": 5126,
      "count": 144,
      "max": [
        6.657120704650879,
        101.08255004882813,
        1.433124303817749
      ],
      "min": [
        -6.657120704650879,
        -0.16182327270507813,
        -80.45682525634766
      ],
      "type": "VEC3"
    },
    {
      "bufferView": 2,
      "byteOffset": 41808,
      "componentType": 5126,
      "count": 144,
      "max": [
        1.0,
        1.0,
        1.0
      ],
      "min": [
        -1.0,
        -1.0,
        -1.0
      ],
      "type": "VEC3"
    },
    {
      "bufferView": 1,
      "byteOffset": 13360,
      "componentType": 5126,
      "count": 144,
      "max": [
        0.9840081334114075,
        0.6416869163513184
      ],
      "min": [
        0.37804412841796875,
        0.013945311307907104
      ],
      "type": "VEC2"
    },
    {
      "bufferView": 0,
      "byteOffset": 11712,
      "componentType": 5125,
      "count": 216,
      "type": "SCALAR"
    }
  ],
  "asset": {
    "extras": {
      "author": "shadowdraak (https://sketchfab.com/shadowdraak)",
      "license": "CC-BY-4.0 (http://creativecommons.org/licenses/by/4.0/)",
      "source": "https://sketchfab.com/3d-models/bookshelf-eb4a9828d3084b34bfc4275c9176c176",
      "title": "Bookshelf"
    },
    "generator": "Sketchfab-12.65.0",
    "version": "2.0"
  },
  "bufferViews": [
    {
      "buffer": 0,
      "byteLength": 12576,
      "name": "floatBufferViews",
      "target": 34963
    },
    {
      "buffer": 0,
      "byteLength": 14512,
      "byteOffset": 12576,
      "byteStride": 8,
      "name": "floatBufferViews",
      "target": 34962
    },
    {
      "buffer": 0,
      "byteLength": 43536,
      "byteOffset": 27088,
      "byteStride": 12,
      "name": "floatBufferViews",
      "target": 34962
    }
  ],
  "buffers": [
    {
      "byteLength": 70624,
      "uri": "scene.bin"
    }
  ],
  "images": [
    {
      "uri": "textures/Bookcase_baseColor.png"
    }
  ],
  "materials": [
    {
      "doubleSided": true,
      "name": "Bookcase",
      "pbrMetallicRoughness": {
        "baseColorTexture": {
          "index": 0
        },
        "metallicFactor": 0.0,
        "roughnessFactor": 0.6
      }
    },
    {
      "alphaMode": "BLEND",
      "doubleSided": true,
      "name": "Bottles",
      "pbrMetallicRoughness": {
        "baseColorFactor": [
          1.0,
          1.0,
          1.0,
          0.23883680207212302
        ],
        "metallicFactor": 0.0,
        "roughnessFactor": 0.9207483816249483
      }
    }
  ],
  "meshes": [
    {
      "name": "group4_Bookcase_0",
      "primitives": [
        {
          "attributes": {
            "NORMAL": 1,
            "POSITION": 0,
            "TEXCOORD_0": 2
          },
          "indices": 3,
          "material": 0,
          "mode": 4
        }
      ]
    },
    {
      "name": "group5_Bottles_0",
      "primitives": [
        {
          "attributes": {
            "NORMAL": 5,
            "POSITION": 4,
            "TEXCOORD_0": 6
          },
          "indices": 7,
          "material": 1,
          "mode": 4
        }
      ]
    },
    {
      "name": "group6_Bookcase_0",
      "primitives": [
        {
          "attributes": {
            "NORMAL": 9,
            "POSITION": 8,
            "TEXCOORD_0": 10
          },
          "indices": 11,
          "material": 0,
          "mode": 4
        }
      ]
    }
  ],
  "nodes": [
    {
      "children": [
        1
      ],
      "matrix": [
        1.0,
        0.0,
        0.0,
        0.0,
        0.0,
        2.220446049250313e-16,
        -1.0,
        0.0,
        0.0,
        1.0,
        2.220446049250313e-16,
        0.0,
        0.0,
        0.0,
        0.0,
        1.0
      ],
      "name": "Sketchfab_model"
    },
    {
      "children": [
        2
      ],
      "matrix": [
        1.0,
        0.0,
        0.0,
        0.0,
        0.0,
        0.0,
        1.0,
        0.0,
        0.0,
        -1.0,
        0.0,
        0.0,
        0.0,
        0.0,
        0.0,
        1.0
      ],
      "name": "7a5f243e9d91480db04201bcb2d7aec5.fbx"
    },
    {
      "children": [
        3,
        5,
        7
      ],
      "name": "RootNode"
    },
    {
      "children": [
        4
      ],
      "name": "group4"
    },
    {
      "mesh": 0,
      "name": "group4_Bookcase_0"
    },
    {
      "children": [
        6
      ],
      "name": "group5"
    },
    {
      "mesh": 1,
      "name": "group5_Bottles_0"
    },
    {
      "children": [
        8
      ],
      "name": "group6"
    },
    {
      "mesh": 2,
      "name": "group6_Bookcase_0"
    }
  ],
  "samplers": [
    {
      "magFilter": 9729,
      "minFilter": 9987,
      "wrapS": 10497,
      "wrapT": 10497
    }
  ],
  "scene": 0,
  "scenes": [
    {
      "name": "Sketchfab_Scene",
      "nodes": [
        0
      ]
    }
  ],
  "textures": [
    {
      "sampler": 0,
      "source": 0
    }
  ]
}
